<svg width="107" height="83" viewBox="0 0 107 83" fill="none" xmlns="http://www.w3.org/2000/svg">
<path d="M11.5842 70.2423C11.2949 70.5597 10.9682 70.9143 10.6042 71.3063C10.2402 71.689 9.85758 72.0857 9.45624 72.4963C9.06424 72.8977 8.67224 73.2943 8.28024 73.6863C7.88824 74.0783 7.51958 74.4423 7.17424 74.7783C7.57558 75.0583 8.00024 75.4037 8.44824 75.8143C8.89624 76.225 9.33491 76.6637 9.76424 77.1303C10.1936 77.597 10.5949 78.073 10.9682 78.5583C11.3509 79.0437 11.6682 79.5057 11.9202 79.9443H10.3242C10.0442 79.5057 9.72224 79.067 9.35824 78.6283C8.99424 78.1803 8.60691 77.7557 8.19624 77.3543C7.79491 76.9437 7.38424 76.5657 6.96424 76.2203C6.55358 75.875 6.15224 75.581 5.76024 75.3383V79.9443H4.40224V70.2423H5.76024V74.5263C6.08691 74.2183 6.44624 73.873 6.83824 73.4903C7.23024 73.0983 7.61758 72.7063 8.00024 72.3143C8.38291 71.9223 8.74224 71.549 9.07824 71.1943C9.42358 70.8303 9.71291 70.513 9.94624 70.2423H11.5842ZM11.739 81.3023C11.8417 81.349 11.9723 81.391 12.131 81.4283C12.299 81.475 12.4623 81.4983 12.621 81.4983C13.1343 81.4983 13.5357 81.3817 13.825 81.1483C14.1143 80.9243 14.3757 80.5557 14.609 80.0423C14.021 78.9223 13.4703 77.737 12.957 76.4863C12.453 75.2263 12.033 73.9523 11.697 72.6643H13.097C13.1997 73.0843 13.321 73.537 13.461 74.0223C13.6103 74.5077 13.7737 75.007 13.951 75.5203C14.1283 76.0337 14.3197 76.547 14.525 77.0603C14.7303 77.5737 14.945 78.0683 15.169 78.5443C15.5237 77.5643 15.8317 76.5937 16.093 75.6323C16.3543 74.671 16.6017 73.6817 16.835 72.6643H18.179C17.843 74.0363 17.4697 75.357 17.059 76.6263C16.6483 77.8863 16.205 79.067 15.729 80.1683C15.5423 80.5883 15.3463 80.9477 15.141 81.2463C14.945 81.5543 14.7257 81.8063 14.483 82.0023C14.2403 82.1983 13.965 82.343 13.657 82.4363C13.3583 82.5297 13.0177 82.5763 12.635 82.5763C12.5323 82.5763 12.425 82.567 12.313 82.5483C12.201 82.539 12.089 82.5203 11.977 82.4923C11.8743 82.4737 11.7763 82.4503 11.683 82.4223C11.599 82.3943 11.5383 82.371 11.501 82.3523L11.739 81.3023ZM20.868 73.5043C21.1573 73.271 21.4933 73.0937 21.876 72.9723C22.268 72.8417 22.6413 72.7763 22.996 72.7763C24.0413 72.7763 24.83 73.0983 25.362 73.7423C25.9033 74.377 26.174 75.2637 26.174 76.4023C26.174 76.8877 26.1087 77.3543 25.978 77.8023C25.8473 78.2503 25.642 78.647 25.362 78.9923C25.0913 79.3377 24.746 79.613 24.326 79.8183C23.906 80.0237 23.4067 80.1263 22.828 80.1263C22.1653 80.1263 21.6147 80.005 21.176 79.7623C20.7373 79.5197 20.3873 79.1883 20.126 78.7683C19.874 78.3483 19.6967 77.8583 19.594 77.2983C19.4913 76.7383 19.44 76.1457 19.44 75.5203C19.44 74.7083 19.496 73.9523 19.608 73.2523C19.7293 72.5523 19.944 71.9363 20.252 71.4043C20.56 70.8723 20.9847 70.4337 21.526 70.0883C22.0767 69.7337 22.7813 69.4957 23.64 69.3743C23.892 69.337 24.1113 69.309 24.298 69.2903C24.494 69.2623 24.662 69.239 24.802 69.2203C24.9513 69.2017 25.0867 69.183 25.208 69.1643C25.3293 69.1363 25.4553 69.1083 25.586 69.0803L25.726 70.2563C25.6607 70.275 25.5907 70.289 25.516 70.2983C25.4507 70.3077 25.3527 70.3217 25.222 70.3403C25.1007 70.359 24.9327 70.3823 24.718 70.4103C24.5127 70.4383 24.242 70.471 23.906 70.5083C22.982 70.611 22.2727 70.891 21.778 71.3483C21.2833 71.8057 20.98 72.5243 20.868 73.5043ZM20.784 75.7303C20.784 76.169 20.812 76.5843 20.868 76.9763C20.9333 77.3683 21.0407 77.7137 21.19 78.0123C21.3487 78.311 21.5587 78.549 21.82 78.7263C22.0813 78.8943 22.4173 78.9783 22.828 78.9783C23.1827 78.9783 23.486 78.913 23.738 78.7823C23.99 78.6423 24.1953 78.4557 24.354 78.2223C24.5127 77.989 24.6293 77.7183 24.704 77.4103C24.7787 77.093 24.816 76.757 24.816 76.4023C24.816 76.085 24.7833 75.777 24.718 75.4783C24.662 75.1797 24.5547 74.9137 24.396 74.6803C24.2373 74.447 24.0227 74.2603 23.752 74.1203C23.4907 73.9803 23.1593 73.9103 22.758 73.9103C22.366 73.9103 21.988 73.9943 21.624 74.1623C21.2693 74.3303 20.994 74.5357 20.798 74.7783C20.7887 74.881 20.784 75.0257 20.784 75.2123C20.784 75.399 20.784 75.5717 20.784 75.7303ZM30.6222 79.0063C30.9302 79.0063 31.2008 79.0017 31.4342 78.9923C31.6768 78.9737 31.8775 78.9457 32.0362 78.9083V76.7383C31.9428 76.6917 31.7888 76.6543 31.5742 76.6263C31.3688 76.589 31.1168 76.5703 30.8182 76.5703C30.6222 76.5703 30.4122 76.5843 30.1882 76.6123C29.9735 76.6403 29.7728 76.701 29.5862 76.7943C29.4088 76.8783 29.2595 76.9997 29.1382 77.1583C29.0168 77.3077 28.9562 77.5083 28.9562 77.7603C28.9562 78.227 29.1055 78.5537 29.4042 78.7403C29.7028 78.9177 30.1088 79.0063 30.6222 79.0063ZM30.5102 72.4823C31.0328 72.4823 31.4715 72.5523 31.8262 72.6923C32.1902 72.823 32.4795 73.0143 32.6942 73.2663C32.9182 73.509 33.0768 73.803 33.1702 74.1483C33.2635 74.4843 33.3102 74.8577 33.3102 75.2683V79.8183C33.1982 79.837 33.0395 79.865 32.8342 79.9023C32.6382 79.9303 32.4142 79.9583 32.1622 79.9863C31.9102 80.0143 31.6348 80.0377 31.3362 80.0563C31.0468 80.0843 30.7575 80.0983 30.4682 80.0983C30.0575 80.0983 29.6795 80.0563 29.3342 79.9723C28.9888 79.8883 28.6902 79.7577 28.4382 79.5803C28.1862 79.3937 27.9902 79.151 27.8502 78.8523C27.7102 78.5537 27.6402 78.1943 27.6402 77.7743C27.6402 77.373 27.7195 77.0277 27.8782 76.7383C28.0462 76.449 28.2702 76.2157 28.5502 76.0383C28.8302 75.861 29.1568 75.7303 29.5302 75.6463C29.9035 75.5623 30.2955 75.5203 30.7062 75.5203C30.8368 75.5203 30.9722 75.5297 31.1122 75.5483C31.2522 75.5577 31.3828 75.5763 31.5042 75.6043C31.6348 75.623 31.7468 75.6417 31.8402 75.6603C31.9335 75.679 31.9988 75.693 32.0362 75.7023V75.3383C32.0362 75.1237 32.0128 74.9137 31.9662 74.7083C31.9195 74.4937 31.8355 74.307 31.7142 74.1483C31.5928 73.9803 31.4248 73.8497 31.2102 73.7563C31.0048 73.6537 30.7342 73.6023 30.3982 73.6023C29.9688 73.6023 29.5908 73.635 29.2642 73.7003C28.9468 73.7563 28.7088 73.817 28.5502 73.8823L28.3962 72.8043C28.5642 72.7297 28.8442 72.6597 29.2362 72.5943C29.6282 72.5197 30.0528 72.4823 30.5102 72.4823ZM41.5766 79.9443H40.2746V76.7243H36.9146V79.9443H35.6126V72.6643H36.9146V75.6323H40.2746V72.6643H41.5766V79.9443ZM46.7137 79.0343C47.2644 79.0343 47.6984 78.927 48.0157 78.7123C48.3331 78.4977 48.4917 78.1523 48.4917 77.6763C48.4917 77.443 48.4451 77.2423 48.3517 77.0743C48.2584 76.9063 48.1277 76.771 47.9597 76.6683C47.8011 76.5563 47.6144 76.477 47.3997 76.4303C47.1851 76.3743 46.9564 76.3463 46.7137 76.3463C46.4617 76.3463 46.2004 76.3557 45.9297 76.3743C45.6684 76.3837 45.4444 76.4117 45.2577 76.4583V78.9643C45.3137 78.9737 45.3977 78.983 45.5097 78.9923C45.6217 79.0017 45.7431 79.011 45.8737 79.0203C46.0137 79.0203 46.1537 79.025 46.2937 79.0343C46.4431 79.0343 46.5831 79.0343 46.7137 79.0343ZM43.9557 79.7903V72.6643H45.2577V75.4503C45.3324 75.4317 45.4304 75.413 45.5517 75.3943C45.6824 75.3757 45.8177 75.357 45.9577 75.3383C46.1071 75.3197 46.2611 75.3057 46.4197 75.2963C46.5784 75.287 46.7277 75.2823 46.8677 75.2823C47.2691 75.2823 47.6471 75.329 48.0017 75.4223C48.3564 75.5063 48.6644 75.6463 48.9257 75.8423C49.1964 76.029 49.4111 76.2763 49.5697 76.5843C49.7284 76.883 49.8077 77.2423 49.8077 77.6623C49.8077 78.101 49.7331 78.4743 49.5837 78.7823C49.4344 79.0903 49.2197 79.3423 48.9397 79.5383C48.6597 79.7343 48.3237 79.8743 47.9317 79.9583C47.5491 80.0517 47.1197 80.0983 46.6437 80.0983C46.1771 80.0983 45.7197 80.0703 45.2717 80.0143C44.8237 79.9677 44.3851 79.893 43.9557 79.7903ZM55.9302 78.6003C55.8369 78.3763 55.7109 78.0917 55.5522 77.7463C55.4029 77.401 55.2396 77.0277 55.0622 76.6263C54.8849 76.225 54.6936 75.8143 54.4882 75.3943C54.2922 74.965 54.1056 74.5637 53.9282 74.1903C53.7509 73.8077 53.5829 73.467 53.4242 73.1683C53.2749 72.8697 53.1536 72.641 53.0602 72.4823C52.9576 73.5837 52.8736 74.7783 52.8082 76.0663C52.7429 77.345 52.6869 78.6377 52.6402 79.9443H51.3102C51.3476 79.1043 51.3896 78.2597 51.4362 77.4103C51.4829 76.5517 51.5342 75.7117 51.5902 74.8903C51.6556 74.0597 51.7209 73.2523 51.7862 72.4683C51.8609 71.6843 51.9402 70.9423 52.0242 70.2423H53.2142C53.4662 70.653 53.7369 71.1383 54.0262 71.6983C54.3156 72.2583 54.6049 72.8463 54.8942 73.4623C55.1836 74.069 55.4636 74.6803 55.7342 75.2963C56.0049 75.903 56.2522 76.4583 56.4762 76.9623C56.7002 76.4583 56.9476 75.903 57.2182 75.2963C57.4889 74.6803 57.7689 74.069 58.0582 73.4623C58.3476 72.8463 58.6369 72.2583 58.9262 71.6983C59.2156 71.1383 59.4862 70.653 59.7382 70.2423H60.9282C61.2456 73.369 61.4836 76.603 61.6422 79.9443H60.3122C60.2656 78.6377 60.2096 77.345 60.1442 76.0663C60.0789 74.7783 59.9949 73.5837 59.8922 72.4823C59.7989 72.641 59.6729 72.8697 59.5142 73.1683C59.3649 73.467 59.2016 73.8077 59.0242 74.1903C58.8469 74.5637 58.6556 74.965 58.4502 75.3943C58.2542 75.8143 58.0676 76.225 57.8902 76.6263C57.7129 77.0277 57.5449 77.401 57.3862 77.7463C57.2369 78.0917 57.1156 78.3763 57.0222 78.6003H55.9302ZM63.4215 76.3183C63.4215 75.6743 63.5149 75.1143 63.7015 74.6383C63.8882 74.153 64.1355 73.7517 64.4435 73.4343C64.7515 73.117 65.1062 72.879 65.5075 72.7203C65.9089 72.5617 66.3195 72.4823 66.7395 72.4823C67.7195 72.4823 68.4709 72.7903 68.9935 73.4063C69.5162 74.013 69.7775 74.9417 69.7775 76.1923C69.7775 76.2483 69.7775 76.323 69.7775 76.4163C69.7775 76.5003 69.7729 76.5797 69.7635 76.6543H64.7795C64.8355 77.4103 65.0549 77.9843 65.4375 78.3763C65.8202 78.7683 66.4175 78.9643 67.2295 78.9643C67.6869 78.9643 68.0695 78.927 68.3775 78.8523C68.6949 78.7683 68.9329 78.689 69.0915 78.6143L69.2735 79.7063C69.1149 79.7903 68.8349 79.879 68.4335 79.9723C68.0415 80.0657 67.5935 80.1123 67.0895 80.1123C66.4549 80.1123 65.9042 80.019 65.4375 79.8323C64.9802 79.6363 64.6022 79.3703 64.3035 79.0343C64.0049 78.6983 63.7809 78.3017 63.6315 77.8443C63.4915 77.3777 63.4215 76.869 63.4215 76.3183ZM68.4195 75.6043C68.4289 75.0163 68.2795 74.5357 67.9715 74.1623C67.6729 73.7797 67.2575 73.5883 66.7255 73.5883C66.4269 73.5883 66.1609 73.649 65.9275 73.7703C65.7035 73.8823 65.5122 74.0317 65.3535 74.2183C65.1949 74.405 65.0689 74.6197 64.9755 74.8623C64.8915 75.105 64.8355 75.3523 64.8075 75.6043H68.4195ZM72.9639 73.5043C73.2532 73.271 73.5892 73.0937 73.9719 72.9723C74.3639 72.8417 74.7372 72.7763 75.0919 72.7763C76.1372 72.7763 76.9259 73.0983 77.4579 73.7423C77.9992 74.377 78.2699 75.2637 78.2699 76.4023C78.2699 76.8877 78.2045 77.3543 78.0739 77.8023C77.9432 78.2503 77.7379 78.647 77.4579 78.9923C77.1872 79.3377 76.8419 79.613 76.4219 79.8183C76.0019 80.0237 75.5025 80.1263 74.9239 80.1263C74.2612 80.1263 73.7105 80.005 73.2719 79.7623C72.8332 79.5197 72.4832 79.1883 72.2219 78.7683C71.9699 78.3483 71.7925 77.8583 71.6899 77.2983C71.5872 76.7383 71.5359 76.1457 71.5359 75.5203C71.5359 74.7083 71.5919 73.9523 71.7039 73.2523C71.8252 72.5523 72.0399 71.9363 72.3479 71.4043C72.6559 70.8723 73.0805 70.4337 73.6219 70.0883C74.1725 69.7337 74.8772 69.4957 75.7359 69.3743C75.9879 69.337 76.2072 69.309 76.3939 69.2903C76.5899 69.2623 76.7579 69.239 76.8979 69.2203C77.0472 69.2017 77.1825 69.183 77.3039 69.1643C77.4252 69.1363 77.5512 69.1083 77.6819 69.0803L77.8219 70.2563C77.7565 70.275 77.6865 70.289 77.6119 70.2983C77.5465 70.3077 77.4485 70.3217 77.3179 70.3403C77.1965 70.359 77.0285 70.3823 76.8139 70.4103C76.6085 70.4383 76.3379 70.471 76.0019 70.5083C75.0779 70.611 74.3685 70.891 73.8739 71.3483C73.3792 71.8057 73.0759 72.5243 72.9639 73.5043ZM72.8799 75.7303C72.8799 76.169 72.9079 76.5843 72.9639 76.9763C73.0292 77.3683 73.1365 77.7137 73.2859 78.0123C73.4445 78.311 73.6545 78.549 73.9159 78.7263C74.1772 78.8943 74.5132 78.9783 74.9239 78.9783C75.2785 78.9783 75.5819 78.913 75.8339 78.7823C76.0859 78.6423 76.2912 78.4557 76.4499 78.2223C76.6085 77.989 76.7252 77.7183 76.7999 77.4103C76.8745 77.093 76.9119 76.757 76.9119 76.4023C76.9119 76.085 76.8792 75.777 76.8139 75.4783C76.7579 75.1797 76.6505 74.9137 76.4919 74.6803C76.3332 74.447 76.1185 74.2603 75.8479 74.1203C75.5865 73.9803 75.2552 73.9103 74.8539 73.9103C74.4619 73.9103 74.0839 73.9943 73.7199 74.1623C73.3652 74.3303 73.0899 74.5357 72.8939 74.7783C72.8845 74.881 72.8799 75.0257 72.8799 75.2123C72.8799 75.399 72.8799 75.5717 72.8799 75.7303ZM79.848 76.3183C79.848 75.6743 79.9414 75.1143 80.128 74.6383C80.3147 74.153 80.562 73.7517 80.87 73.4343C81.178 73.117 81.5327 72.879 81.934 72.7203C82.3354 72.5617 82.746 72.4823 83.166 72.4823C84.146 72.4823 84.8974 72.7903 85.42 73.4063C85.9427 74.013 86.204 74.9417 86.204 76.1923C86.204 76.2483 86.204 76.323 86.204 76.4163C86.204 76.5003 86.1994 76.5797 86.19 76.6543H81.206C81.262 77.4103 81.4814 77.9843 81.864 78.3763C82.2467 78.7683 82.844 78.9643 83.656 78.9643C84.1134 78.9643 84.496 78.927 84.804 78.8523C85.1214 78.7683 85.3594 78.689 85.518 78.6143L85.7 79.7063C85.5414 79.7903 85.2614 79.879 84.86 79.9723C84.468 80.0657 84.02 80.1123 83.516 80.1123C82.8814 80.1123 82.3307 80.019 81.864 79.8323C81.4067 79.6363 81.0287 79.3703 80.73 79.0343C80.4314 78.6983 80.2074 78.3017 80.058 77.8443C79.918 77.3777 79.848 76.869 79.848 76.3183ZM84.846 75.6043C84.8554 75.0163 84.706 74.5357 84.398 74.1623C84.0994 73.7797 83.684 73.5883 83.152 73.5883C82.8534 73.5883 82.5874 73.649 82.354 73.7703C82.13 73.8823 81.9387 74.0317 81.78 74.2183C81.6214 74.405 81.4954 74.6197 81.402 74.8623C81.318 75.105 81.262 75.3523 81.234 75.6043H84.846ZM90.7483 73.7563C90.7483 74.0643 90.739 74.3957 90.7203 74.7503C90.711 75.0957 90.6877 75.4457 90.6503 75.8003C90.613 76.1457 90.5617 76.491 90.4963 76.8363C90.431 77.1723 90.347 77.4897 90.2443 77.7883C90.1417 78.087 90.011 78.367 89.8523 78.6283C89.703 78.8897 89.5163 79.123 89.2923 79.3283C89.0683 79.5243 88.807 79.6923 88.5083 79.8323C88.2097 79.963 87.8597 80.047 87.4583 80.0843L87.2763 78.9923C87.7337 78.899 88.093 78.7263 88.3543 78.4743C88.625 78.2223 88.8397 77.9143 88.9983 77.5503C89.1383 77.233 89.241 76.8737 89.3063 76.4723C89.3717 76.071 89.4183 75.6557 89.4463 75.2263C89.4743 74.7877 89.4883 74.349 89.4883 73.9103C89.4977 73.4717 89.5023 73.0563 89.5023 72.6643H94.3463V79.9443H93.0443V73.7563H90.7483ZM99.4795 79.0343C100.03 79.0343 100.464 78.927 100.782 78.7123C101.099 78.4977 101.258 78.1523 101.258 77.6763C101.258 77.443 101.211 77.2423 101.118 77.0743C101.024 76.9063 100.894 76.771 100.726 76.6683C100.567 76.5563 100.38 76.477 100.166 76.4303C99.9509 76.3743 99.7222 76.3463 99.4795 76.3463C99.2275 76.3463 98.9662 76.3557 98.6955 76.3743C98.4342 76.3837 98.2102 76.4117 98.0235 76.4583V78.9643C98.0795 78.9737 98.1635 78.983 98.2755 78.9923C98.3875 79.0017 98.5089 79.011 98.6395 79.0203C98.7795 79.0203 98.9195 79.025 99.0595 79.0343C99.2089 79.0343 99.3489 79.0343 99.4795 79.0343ZM96.7215 79.7903V72.6643H98.0235V75.4503C98.0982 75.4317 98.1962 75.413 98.3175 75.3943C98.4482 75.3757 98.5835 75.357 98.7235 75.3383C98.8729 75.3197 99.0269 75.3057 99.1855 75.2963C99.3442 75.287 99.4935 75.2823 99.6335 75.2823C100.035 75.2823 100.413 75.329 100.768 75.4223C101.122 75.5063 101.43 75.6463 101.692 75.8423C101.962 76.029 102.177 76.2763 102.336 76.5843C102.494 76.883 102.574 77.2423 102.574 77.6623C102.574 78.101 102.499 78.4743 102.35 78.7823C102.2 79.0903 101.986 79.3423 101.706 79.5383C101.426 79.7343 101.09 79.8743 100.698 79.9583C100.315 80.0517 99.8855 80.0983 99.4095 80.0983C98.9429 80.0983 98.4855 80.0703 98.0375 80.0143C97.5895 79.9677 97.1509 79.893 96.7215 79.7903Z" fill="black"/>
<path d="M22.8338 5.55709L2.43678 55.2653C1.35675 57.8974 3.29231 60.7838 6.13735 60.7838H40.7612C42.9703 60.7838 44.7612 58.9929 44.7612 56.7838V46.4159C44.7612 45.7969 45.263 45.2951 45.882 45.2951C46.501 45.2951 47.0028 45.7969 47.0028 46.4159V56.7838C47.0028 58.9929 48.7937 60.7838 51.0028 60.7838H58.2543C60.4634 60.7838 62.2543 58.9929 62.2543 56.7838V46.4159C62.2543 45.7969 62.7561 45.2951 63.3751 45.2951C63.9941 45.2951 64.4959 45.7969 64.4959 46.4159V56.7838C64.4959 58.9929 66.2868 60.7838 68.4959 60.7838H100.276C103.117 60.7838 105.052 57.9057 103.981 55.275L83.7319 5.56C82.7526 3.15563 79.7779 2.30671 77.6771 3.8321L55.5561 19.8945C54.1509 20.9148 52.2478 20.9119 50.8458 19.8873L28.8944 3.846C26.7977 2.31381 23.8196 3.15462 22.8338 5.55709Z" fill="#171717"/>
<path d="M26.0858 19.2583L18.1109 41.0432L7.60742 63.8007" stroke="white" stroke-width="5"/>
<path d="M39.3176 20.7271C27.8293 36.425 21.7591 39.9186 17.876 39.9186C15.2869 39.9186 16.48 50.8003 34.5692 62.3321" stroke="white" stroke-width="4.5"/>
</svg>
