<svg width="26" height="25" viewBox="0 0 26 25" fill="none" xmlns="http://www.w3.org/2000/svg">
<path d="M25.273 18.522C25.1821 17.9592 24.9946 17.454 24.7278 17.0022L24.7386 17.0222C24.6436 16.8672 24.4877 16.7579 24.3043 16.7279L24.301 16.7271L16.8239 15.54C16.7947 15.535 16.7606 15.5325 16.7264 15.5325C16.5538 15.5325 16.3971 15.6017 16.2837 15.7142C15.7202 16.2811 15.2883 16.978 15.0366 17.7575L15.0266 17.7942C11.6786 16.427 9.07343 13.8218 7.73875 10.5622L7.70707 10.4747C8.52239 10.2129 9.21932 9.78026 9.78537 9.21671C9.89875 9.10333 9.96878 8.9466 9.96878 8.77404C9.96878 8.73986 9.96628 8.70651 9.96044 8.674L9.96128 8.67733L8.77332 1.20028C8.74331 1.01354 8.6341 0.856818 8.48154 0.763448L8.47904 0.761781C8.05804 0.510851 7.56702 0.326613 7.04182 0.239913L7.01764 0.236579C6.75504 0.178223 6.45326 0.144043 6.14397 0.144043C6.12313 0.144043 6.10229 0.144043 6.08145 0.144877H6.08478H6.07978C3.16449 0.164884 0.806081 2.52496 0.788574 5.43942V5.44108C0.801079 16.0793 9.42107 24.7002 20.0585 24.7127H20.0602C22.978 24.6935 25.338 22.3334 25.3572 19.4181V19.4165C25.3572 19.3998 25.3572 19.3798 25.3572 19.3598C25.3572 19.063 25.3272 18.7737 25.2688 18.4944L25.2738 18.522H25.273ZM20.0593 23.4622C10.1113 23.4505 2.05073 15.3891 2.03906 5.44192C2.0549 3.21356 3.85809 1.41036 6.08562 1.39536H6.08728C6.10062 1.39536 6.11729 1.39536 6.13313 1.39536C6.35989 1.39536 6.58081 1.42037 6.79422 1.46705L6.77421 1.46288C7.07933 1.5129 7.3536 1.5971 7.61037 1.71298L7.58953 1.70464L8.67495 8.54228C8.15141 8.98245 7.5045 9.2934 6.79339 9.41762L6.76921 9.42095C6.47326 9.47431 6.25235 9.7294 6.25235 10.037C6.25235 10.1104 6.26485 10.1804 6.28819 10.2454L6.28653 10.2413C7.76376 14.4696 11.0342 17.7392 15.1616 19.1855L15.2625 19.2164C15.3233 19.2381 15.3934 19.2506 15.4667 19.2506C15.7735 19.2506 16.0286 19.0297 16.0811 18.7379L16.082 18.7337C16.2095 17.9984 16.5205 17.3515 16.9665 16.8205L16.9615 16.8263L23.7983 17.9126C23.9092 18.1577 23.9958 18.4428 24.045 18.7412L24.0475 18.7612C24.0859 18.9438 24.1084 19.1539 24.1084 19.369C24.1084 19.384 24.1084 19.3981 24.1084 19.4131V19.4106C24.0951 21.6407 22.2919 23.4455 20.0635 23.4614H20.0618L20.0593 23.4622Z" fill="#FE485E"/>
</svg>
